<?xml version="1.0" encoding="iso-8859-1"?>
<!-- Generator: Adobe Illustrator 19.0.0, SVG Export Plug-In . SVG Version: 6.00 Build 0)  -->
<svg version="1.1" id="Capa_1" xmlns="http://www.w3.org/2000/svg" xmlns:xlink="http://www.w3.org/1999/xlink" x="0px" y="0px"
	 viewBox="-49 141 512 512" style="enable-background:new -49 141 512 512;" xml:space="preserve">
<linearGradient id="XMLID_13_" gradientUnits="userSpaceOnUse" x1="27.3306" y1="399.5756" x2="200.9953" y2="399.5756">
	<stop  offset="0" style="stop-color:#3ACEF8"/>
	<stop  offset="1" style="stop-color:#30357C"/>
</linearGradient>
<path id="XMLID_30_" style="fill:url(#XMLID_13_);" d="M33.282,294.015c-3.303,0-5.952,2.685-5.952,5.988v199.18
	c0,3.303,2.648,5.952,5.952,5.952h161.689c3.339,0,6.024-2.649,6.024-5.952v-199.18c0-3.303-2.685-5.988-6.024-5.988H33.282z
	 M45.26,305.992h137.735c3.34,0,5.988,2.687,5.988,6.026v175.153c0,3.302-2.648,5.988-5.988,5.988H45.26
	c-3.303,0-5.99-2.687-5.99-5.988V312.018C39.27,308.678,41.957,305.992,45.26,305.992z"/>
<linearGradient id="XMLID_14_" gradientUnits="userSpaceOnUse" x1="51.139" y1="403.9676" x2="177.1503" y2="403.9676">
	<stop  offset="0" style="stop-color:#7AD2F1"/>
	<stop  offset="1" style="stop-color:#B1E2F5"/>
</linearGradient>
<path id="XMLID_10_" style="fill:url(#XMLID_14_);" d="M114.145,326.97c-32.991,0-32.555,28.781-32.555,28.781l-0.254,15.281
	c-2.687-0.036-3.303,2.649-3.303,7.984c0,7.948,4.863,16.332,9.255,20.651c1.525,6.279,4.392,11.796,8.239,16.006
	c-0.109,0.073-0.291,0.144-0.398,0.217c-13.139,8.022-28.819,13.465-39.053,18.873c-1.633,0.871-3.339,2.105-4.936,3.667v37.455
	c0,2.794,2.25,5.081,5.045,5.081h115.922c2.796,0,5.045-2.287,5.045-5.081v-37.455c-1.633-1.562-3.301-2.796-4.936-3.667
	c-10.234-5.408-25.914-10.851-39.052-18.873c-0.145-0.073-0.291-0.144-0.436-0.217c3.848-4.21,6.715-9.727,8.238-16.006
	c4.392-4.319,9.291-12.703,9.291-20.651c0-5.335-0.653-8.021-3.338-7.984l-0.218-15.281
	C146.701,355.75,147.099,326.97,114.145,326.97z"/>
<linearGradient id="XMLID_15_" gradientUnits="userSpaceOnUse" x1="-38.9783" y1="415.7264" x2="452.7302" y2="415.7264">
	<stop  offset="0" style="stop-color:#3ACEF8"/>
	<stop  offset="1" style="stop-color:#30357C"/>
</linearGradient>
<path id="XMLID_26_" style="fill:url(#XMLID_15_);" d="M-22.574,178.71c-9.109,0-16.405,7.332-16.405,16.405v441.225
	c0,9.109,7.295,16.404,16.405,16.404H436.29c9.073,0,16.441-7.295,16.441-16.404V195.114c0-9.073-7.368-16.405-16.441-16.405
	h-41.268c0.182,14.881,2.141,30.015-3.774,43.916c-9.691,24.898-47.183,29.289-64.058,9.509
	c-12.849-14.518-10.162-35.278-9.727-53.425H96.433c0.073,15.243,2.25,30.813-4.247,44.932c-10.307,23.99-46.818,27.91-63.513,8.637
	c-12.958-14.481-10.308-35.349-9.837-53.569H-22.574z M10.235,260.589h393.316c9.073,0,16.368,7.331,16.368,16.441v326.499
	c0,9.075-7.295,16.406-16.368,16.406H10.235c-9.109,0-16.405-7.331-16.405-16.406V277.029
	C-6.169,267.92,1.126,260.589,10.235,260.589z"/>
<linearGradient id="XMLID_16_" gradientUnits="userSpaceOnUse" x1="32.9549" y1="185.7141" x2="380.7589" y2="185.7141">
	<stop  offset="0" style="stop-color:#3ACEF8"/>
	<stop  offset="1" style="stop-color:#30357C"/>
</linearGradient>
<path id="XMLID_23_" style="fill:url(#XMLID_16_);" d="M57.527,141c-13.61,0-24.572,10.962-24.572,24.572v40.25
	c0,13.647,10.962,24.607,24.572,24.607s24.57-10.96,24.57-24.607v-40.25C82.097,151.962,71.137,141,57.527,141z M356.189,141
	c-13.647,0-24.607,10.962-24.607,24.572v40.25c0,13.647,10.96,24.607,24.607,24.607c13.61,0,24.57-10.96,24.57-24.607v-40.25
	C380.759,151.962,369.799,141,356.189,141z"/>
<linearGradient id="XMLID_17_" gradientUnits="userSpaceOnUse" x1="229.5957" y1="372.8638" x2="390.9936" y2="372.8638">
	<stop  offset="0" style="stop-color:#3ACEF8"/>
	<stop  offset="1" style="stop-color:#30357C"/>
</linearGradient>
<path id="XMLID_4_" style="fill:url(#XMLID_17_);" d="M241.899,360.579H378.69c6.823,0,12.303,5.479,12.303,12.303
	c0,6.786-5.481,12.267-12.303,12.267H241.899c-6.823,0-12.303-5.481-12.303-12.267C229.596,366.058,235.076,360.579,241.899,360.579
	z"/>
<linearGradient id="XMLID_18_" gradientUnits="userSpaceOnUse" x1="229.5957" y1="432.8572" x2="390.9936" y2="432.8572">
	<stop  offset="0" style="stop-color:#3ACEF8"/>
	<stop  offset="1" style="stop-color:#30357C"/>
</linearGradient>
<path id="XMLID_3_" style="fill:url(#XMLID_18_);" d="M241.899,420.572H378.69c6.823,0,12.303,5.481,12.303,12.303
	c0,6.786-5.481,12.267-12.303,12.267H241.899c-6.823,0-12.303-5.481-12.303-12.267C229.596,426.053,235.076,420.572,241.899,420.572
	z"/>
<linearGradient id="XMLID_19_" gradientUnits="userSpaceOnUse" x1="229.5957" y1="492.8505" x2="390.9936" y2="492.8505">
	<stop  offset="0" style="stop-color:#3ACEF8"/>
	<stop  offset="1" style="stop-color:#30357C"/>
</linearGradient>
<path id="XMLID_2_" style="fill:url(#XMLID_19_);" d="M241.899,480.565H378.69c6.823,0,12.303,5.481,12.303,12.304
	c0,6.788-5.481,12.267-12.303,12.267H241.899c-6.823,0-12.303-5.479-12.303-12.267C229.596,486.046,235.076,480.565,241.899,480.565
	z"/>
<linearGradient id="XMLID_20_" gradientUnits="userSpaceOnUse" x1="36.1492" y1="559.3228" x2="377.565" y2="559.3228">
	<stop  offset="0" style="stop-color:#3ACEF8"/>
	<stop  offset="1" style="stop-color:#30357C"/>
</linearGradient>
<path id="XMLID_1_" style="fill:url(#XMLID_20_);" d="M48.454,547.019h316.844c6.786,0,12.267,5.481,12.267,12.303l0,0
	c0,6.823-5.481,12.303-12.267,12.303H48.454c-6.824,0-12.305-5.481-12.305-12.303l0,0C36.149,552.5,41.63,547.019,48.454,547.019z"
	/>
</svg>
