<?xml version="1.0" encoding="iso-8859-1"?>
<!-- Generator: Adobe Illustrator 19.0.0, SVG Export Plug-In . SVG Version: 6.00 Build 0)  -->
<svg version="1.1" id="Capa_1" xmlns="http://www.w3.org/2000/svg" xmlns:xlink="http://www.w3.org/1999/xlink" x="0px" y="0px"
	 viewBox="-49 141 512 512" style="enable-background:new -49 141 512 512;" xml:space="preserve">
<linearGradient id="XMLID_2_" gradientUnits="userSpaceOnUse" x1="16" y1="396.9106" x2="407" y2="396.9106">
	<stop  offset="0" style="stop-color:#3ACEF8"/>
	<stop  offset="1" style="stop-color:#30357C"/>
</linearGradient>
<path id="XMLID_32_" style="fill:url(#XMLID_2_);" d="M32.446,141.008c-4.307,0-8.585,1.761-11.628,4.788
	C17.772,148.823,16,153.073,16,157.353v479.122c0,4.28,1.772,8.532,4.817,11.556c3.045,3.027,7.322,4.789,11.628,4.789h358.109
	c4.305,0,8.583-1.762,11.627-4.789c3.045-3.025,4.819-7.276,4.819-11.556c0-123.911,0-247.82,0-371.731
	c-0.468-4.785-2.204-9.615-5.075-12.451L289.89,145.54c-2.944-2.784-6.955-4.423-11.018-4.502
	c-82.047-0.062-164.305-0.03-246.43-0.03H32.446z M48.891,173.699h213.182v90.409c0,4.28,1.772,8.532,4.817,11.558
	c3.045,3.027,7.322,4.788,11.628,4.788h95.59c0,113.245,0,226.501,0,339.677H48.891V173.699z M294.964,196.334l53.993,51.429
	h-53.993V196.334z"/>
<linearGradient id="XMLID_3_" gradientUnits="userSpaceOnUse" x1="88.1564" y1="489.3534" x2="334.8388" y2="489.3534">
	<stop  offset="0" style="stop-color:#7AD2F1"/>
	<stop  offset="1" style="stop-color:#B1E2F5"/>
</linearGradient>
<path id="XMLID_16_" style="fill:url(#XMLID_3_);" d="M104.6,473.008h213.793c9.082,0,16.446,7.32,16.446,16.345l0,0
	c0,9.027-7.363,16.345-16.446,16.345H104.6c-9.081,0-16.444-7.318-16.444-16.345l0,0C88.156,480.328,95.52,473.008,104.6,473.008z"
	/>
<linearGradient id="XMLID_4_" gradientUnits="userSpaceOnUse" x1="162.5918" y1="355.4087" x2="260.4082" y2="355.4087">
	<stop  offset="0" style="stop-color:#7AD2F1"/>
	<stop  offset="1" style="stop-color:#B1E2F5"/>
</linearGradient>
<path id="XMLID_25_" style="fill:url(#XMLID_4_);" d="M211.499,266.583c-3.168,0-5.72,2.534-5.72,5.684v13.458
	c-11.345,0.978-22.365,4.721-29.369,11.681c-6.802,6.789-10.2,15.509-10.2,26.125c0,8.148,1.737,14.823,5.218,20.008
	c3.478,5.188,8.014,9.163,13.607,11.97c5.558,2.793,12.479,5.344,20.744,7.616v43.281c-0.052-0.021-0.145-0.041-0.145-0.041
	c-4.16-1.171-7.238-3.005-9.75-5.229c-2.516-2.222-4.389-4.677-5.631-7.361c-1.244-2.685-2.691-6.574-4.367-11.637
	c-0.743-2.342-2.083-4.155-4.011-5.453c-1.926-1.299-4.3-1.965-7.094-1.965c-3.48,0-6.361,1.198-8.691,3.575
	c-2.328,2.376-3.497,5.053-3.497,8.017c0,4.015,0.868,8.091,2.605,12.256c1.737,4.168,4.423,8.191,8.053,12.048
	c3.637,3.86,8.171,7.089,13.607,9.683c5.595,2.613,12.115,4.227,18.923,4.807v13.445c0,3.149,2.551,5.684,5.72,5.684
	c3.168,0,5.72-2.535,5.72-5.684v-13.434c8.294-0.707,16.501-2.962,23.527-6.85c6.457-3.888,11.368-8.913,14.69-15.056
	c3.322-6.142,4.97-12.735,4.97-19.774c0-5.618-1.048-10.767-3.127-15.487c-2.082-4.723-5.041-8.796-8.892-12.193
	c-3.604-3.27-7.688-5.779-12.257-7.505c-4.563-1.728-10.687-3.65-18.386-5.752l-0.526-0.156v-38.471
	c0.175,0.03,0.347,0.073,0.526,0.111c7.824,2.534,12.762,7.652,14.812,15.367c1.802,6.541,5.743,9.827,11.83,9.827
	c3.23,0,5.965-1.121,8.233-3.376c2.268-2.248,3.419-4.93,3.419-8.017c0-2.777-0.781-5.836-2.303-9.169
	c-1.522-3.335-3.674-6.56-6.468-9.705c-3.54-4.135-7.683-7.231-12.433-9.27c-5.103-2.136-11.209-3.477-17.616-3.964v-13.401
	c0-3.149-2.551-5.686-5.719-5.686L211.499,266.583z M205.779,303.633v35.406c-5.52-2.025-9.634-4.292-12.344-6.775
	c-2.731-2.499-4.109-6.18-4.109-11.058c0-5.121,1.458-8.957,4.38-11.49c2.891-2.505,7.74-5.614,12.075-6.084H205.779z
	 M217.22,366.43l0.525,0.156c6.458,2.036,11.342,4.53,14.668,7.459c3.322,2.934,4.983,7.078,4.983,12.448
	c0,5.001-1.714,9.37-5.127,13.135c-3.418,3.767-8.251,6.269-14.523,7.506c-0.177,0.03-0.351,0.04-0.525,0.071v-40.769V366.43z"/>
<linearGradient id="XMLID_5_" gradientUnits="userSpaceOnUse" x1="88.1564" y1="550.8164" x2="334.8388" y2="550.8164">
	<stop  offset="0" style="stop-color:#7AD2F1"/>
	<stop  offset="1" style="stop-color:#B1E2F5"/>
</linearGradient>
<path id="XMLID_9_" style="fill:url(#XMLID_5_);" d="M104.6,534.471h213.793c9.082,0,16.446,7.318,16.446,16.345l0,0
	c0,9.027-7.363,16.345-16.446,16.345H104.6c-9.081,0-16.444-7.318-16.444-16.345l0,0C88.156,541.789,95.52,534.471,104.6,534.471z"
	/>
</svg>
