<?xml version="1.0" encoding="iso-8859-1"?>
<!-- Generator: Adobe Illustrator 19.0.0, SVG Export Plug-In . SVG Version: 6.00 Build 0)  -->
<svg version="1.1" id="Capa_1" xmlns="http://www.w3.org/2000/svg" xmlns:xlink="http://www.w3.org/1999/xlink" x="0px" y="0px"
	 viewBox="-49 141 512 512" style="enable-background:new -49 141 512 512;" xml:space="preserve">
<linearGradient id="XMLID_10_" gradientUnits="userSpaceOnUse" x1="98" y1="549.6911" x2="423" y2="549.6911">
	<stop  offset="0" style="stop-color:#7AD2F1"/>
	<stop  offset="1" style="stop-color:#B1E2F5"/>
</linearGradient>
<rect id="XMLID_9_" x="98" y="464" style="fill:url(#XMLID_10_);" width="325" height="171.382"/>
<linearGradient id="XMLID_11_" gradientUnits="userSpaceOnUse" x1="-36" y1="546.693" x2="450" y2="546.693">
	<stop  offset="0" style="stop-color:#3ACEF8"/>
	<stop  offset="1" style="stop-color:#30357C"/>
</linearGradient>
<path id="XMLID_16_" style="fill:url(#XMLID_11_);" d="M3.224,440.643v0.096H1.558c-6.424,0-12.577,0.345-18.592,3.164
	c-10.988,5.151-17.247,15.41-18.791,27.154c-0.291,2.217-0.133,4.563-0.133,6.799v77.928v63.802c0,0.326,0.033,0.659,0.063,0.966
	c0.947,17.843,15.256,31.984,33.386,31.984H8.019h54.773h180.344h152.959c12.269,0,26.043,1.639,37.215-4.297
	C446.073,641.453,450,628.008,450,614.655v-32.318v-89.19v-19.423c0-18.198-15.249-32.984-33.316-32.984h-5.863v-0.097h-161.82
	H69.389H3.222L3.224,440.643z M191.131,472.293h31.75c4.397,0,7.93,3.532,7.93,7.93v42.645h42.679c4.398,0,7.93,3.567,7.93,7.962
	v31.752c0,4.398-3.532,7.929-7.93,7.929h-42.679v42.645c0,4.398-3.532,7.93-7.93,7.93h-31.75c-4.397,0-7.93-3.532-7.93-7.93v-42.645
	h-42.68c-4.393,0-7.927-3.531-7.927-7.929v-31.752c0-4.395,3.534-7.962,7.927-7.962h42.68v-42.645
	C183.201,475.826,186.733,472.293,191.131,472.293z M345.555,481.023h62.334v0.03c-0.284,1.244-0.352,2.562-0.133,3.899
	c0.043,0.518,0.085,1.048,0.133,1.566c-0.403,13.416-20.698,17.588-31.184,17.726c-10.089,0.131-33.367-5.124-31.085-19.29
	c0.207-1.293,0.163-2.589-0.096-3.798h0.033v-0.133H345.555z"/>
<linearGradient id="XMLID_12_" gradientUnits="userSpaceOnUse" x1="18.2314" y1="314.4632" x2="274.257" y2="314.4632">
	<stop  offset="0" style="stop-color:#3ACEF8"/>
	<stop  offset="1" style="stop-color:#30357C"/>
</linearGradient>
<path id="XMLID_5_" style="fill:url(#XMLID_12_);" d="M27.06,201.747c-4.891,0-8.828,3.935-8.828,8.827v216.606h17.653V228.26
	c0-4.893,3.938-8.86,8.828-8.86h203.03c4.893,0,8.828,3.967,8.828,8.86v198.919h17.686V210.574c0-4.893-3.967-8.827-8.858-8.827
	H27.06z"/>
<linearGradient id="XMLID_13_" gradientUnits="userSpaceOnUse" x1="50.1391" y1="333.5704" x2="240.7832" y2="333.5704">
	<stop  offset="0" style="stop-color:#7AD2F1"/>
	<stop  offset="1" style="stop-color:#B1E2F5"/>
</linearGradient>
<path id="XMLID_4_" style="fill:url(#XMLID_13_);" d="M137.131,239.967c-29.154,0.454-61.495,11.249-76.82,37.274
	c-13.241,22.484-13.326,51.837-1.591,75.336c7.654,15.324,16.324,30.214,22.876,46.097c3.708,8.992-2.233,22.822-0.253,28.507
	c45.849,0,91.696,0,137.545,0c5.302-7.979-1.282-17.816,5.228-25.173c3.437-3.886,2.239-6.714,4.408-12.536
	c2.007-5.388-7.678-14.16,2.867-14.219c13.092-0.074,10.598-14.039,3.987-22.211c-5.808-7.18-15.134-14.522-13.742-24.569
	c1.667-12.044-14.315-29.326-4.202-35.257c10.35-6.069,10.053-5.957,6.235-12.738c-7.428-13.195-19.385-21.825-33.446-27.505
	c-17.193-6.946-34.739-13.29-53.092-13.005V239.967z"/>
<linearGradient id="XMLID_14_" gradientUnits="userSpaceOnUse" x1="78.9787" y1="299.2764" x2="335.0057" y2="299.2764">
	<stop  offset="0" style="stop-color:#3ACEF8"/>
	<stop  offset="1" style="stop-color:#30357C"/>
</linearGradient>
<path id="XMLID_3_" style="fill:url(#XMLID_14_);" d="M87.805,171.374c-4.891,0-8.826,3.937-8.826,8.828v8.827h229.514
	c4.891,0,8.827,3.965,8.827,8.858v229.293h17.686V180.202c0-4.894-3.967-8.828-8.858-8.828H87.807H87.805z"/>
<linearGradient id="XMLID_15_" gradientUnits="userSpaceOnUse" x1="139.7274" y1="284.0905" x2="395.7545" y2="284.0905">
	<stop  offset="0" style="stop-color:#3ACEF8"/>
	<stop  offset="1" style="stop-color:#30357C"/>
</linearGradient>
<path id="XMLID_2_" style="fill:url(#XMLID_15_);" d="M148.554,141c-4.89,0-8.826,3.935-8.826,8.827v8.67
	c77.322,0.086,159.037,0.171,229.513,0.16c4.893,0,8.828,3.964,8.828,8.858v258.211c0,0.498-0.054,0.982-0.126,1.456h17.813V149.828
	c0-4.893-3.968-8.827-8.858-8.827H148.556L148.554,141z"/>
</svg>
