<?xml version="1.0" encoding="iso-8859-1"?>
<!-- Generator: Adobe Illustrator 19.0.0, SVG Export Plug-In . SVG Version: 6.00 Build 0)  -->
<svg version="1.1" id="Capa_1" xmlns="http://www.w3.org/2000/svg" xmlns:xlink="http://www.w3.org/1999/xlink" x="0px" y="0px"
	 viewBox="-49 141 512 512" style="enable-background:new -49 141 512 512;" xml:space="preserve">
<linearGradient id="XMLID_7_" gradientUnits="userSpaceOnUse" x1="87.3088" y1="615.0511" x2="326.3021" y2="615.0511">
	<stop  offset="0" style="stop-color:#3ACEF8"/>
	<stop  offset="1" style="stop-color:#30357C"/>
</linearGradient>
<path id="XMLID_6_" style="fill:url(#XMLID_7_);" d="M101.372,600.174c-7.791,0-14.064,6.271-14.064,14.064v15.691h238.993v-15.691
	c0-7.793-6.274-14.064-14.067-14.064H101.374H101.372z"/>
<linearGradient id="XMLID_8_" gradientUnits="userSpaceOnUse" x1="-49.0659" y1="397.6655" x2="463.0658" y2="397.6655">
	<stop  offset="0" style="stop-color:#3ACEF8"/>
	<stop  offset="1" style="stop-color:#30357C"/>
</linearGradient>
<path id="XMLID_21_" style="fill:url(#XMLID_8_);" d="M429.076,215.359h-444.15c-18.658,0-33.992,15.33-33.992,33.99v260.003
	c0,18.657,15.334,33.99,33.992,33.99H133.79v36.63h146.277v-36.63h149.008c18.658,0,33.99-15.334,33.99-33.99V249.349
	C463.066,230.693,447.734,215.359,429.076,215.359z M443.06,509.352c0,7.921-6.062,13.984-13.984,13.984h-444.15
	c-7.921,0-13.988-6.065-13.988-13.984V249.349c0-7.921,6.065-13.985,13.988-13.985h444.15c7.921,0,13.984,6.064,13.984,13.985
	V509.352z"/>
<linearGradient id="XMLID_9_" gradientUnits="userSpaceOnUse" x1="13.4072" y1="357.7089" x2="217.0581" y2="357.7089">
	<stop  offset="0" style="stop-color:#7AD2F1"/>
	<stop  offset="1" style="stop-color:#B1E2F5"/>
</linearGradient>
<path id="XMLID_23_" style="fill:url(#XMLID_9_);" d="M115.232,255.898c-3.565,0-7.538,0.405-11.103,0.8
	c-4.754,0.792-7.902,4.345-7.902,8.702v9.502c0,1.98-1.588,3.971-3.568,4.368c-5.944,1.979-11.886,4.36-17.037,7.135
	c-1.585,1.188-3.951,0.784-5.534-0.8l-6.736-6.734c-3.17-2.773-7.938-3.174-11.503-0.399c-5.944,4.751-11.084,9.894-15.838,15.838
	c-2.773,3.565-2.768,8.335,0.4,11.503l6.736,6.734c1.585,1.586,1.955,3.555,0.765,5.534c-3.166,5.549-5.55,11.095-7.133,17.039
	c-0.397,1.982-2.353,3.568-4.335,3.568h-9.504c-4.754,0.395-8.338,3.578-8.734,7.935c-0.395,3.565-0.8,7.141-0.8,11.103
	c0,3.565,0.405,7.503,0.8,11.07c0.792,4.752,4.376,7.935,8.734,7.935h9.504c1.982,0,3.938,1.588,4.335,3.568
	c1.98,5.944,4.362,11.886,7.133,17.037c1.189,1.585,0.819,3.95-0.765,5.536l-6.736,6.735c-2.773,3.17-3.173,7.938-0.4,11.503
	c4.754,5.944,9.896,11.084,15.838,15.838c3.565,2.773,8.332,2.769,11.503-0.4l6.736-6.736c1.585-1.583,3.554-1.952,5.534-0.767
	c5.547,3.17,11.095,5.518,17.037,7.103c1.98,0.395,3.568,2.388,3.568,4.366v9.503c0.395,4.754,3.544,8.338,7.902,8.737
	c3.565,0.395,7.141,0.767,11.103,0.767c3.565,0,7.539-0.372,11.103-0.767c4.754-0.792,7.936-4.376,7.936-8.737v-9.503
	c0-1.977,1.555-3.971,3.533-4.366c5.944-1.982,11.887-4.33,17.037-7.103c1.585-1.185,3.984-0.816,5.569,0.767l6.734,6.736
	c3.17,2.773,7.905,3.173,11.468,0.4c5.944-4.754,11.119-9.894,15.873-15.838c2.771-3.565,2.768-8.333-0.402-11.503l-6.734-6.735
	c-1.585-1.584-1.988-3.553-0.8-5.536c3.17-5.546,5.551-11.093,7.136-17.037c0.394-1.98,2.387-3.568,4.367-3.568h9.504
	c4.753-0.395,8.307-3.578,8.702-7.935c0.397-3.567,0.8-7.106,0.8-11.07c0-3.565-0.403-7.538-0.8-11.103
	c-0.792-4.751-4.346-7.935-8.702-7.935h-9.504c-1.982,0-3.973-1.586-4.367-3.568c-1.982-5.944-4.362-11.889-7.136-17.039
	c-1.188-1.582-0.784-3.947,0.8-5.534l6.734-6.734c2.774-3.168,3.173-7.938,0.402-11.503c-4.754-5.943-9.929-11.085-15.873-15.838
	c-3.563-2.774-8.299-2.769-11.468,0.399l-6.734,6.734c-1.586,1.585-3.587,1.988-5.569,0.8c-5.547-3.169-11.095-5.551-17.037-7.135
	c-1.98-0.397-3.533-2.388-3.533-4.368v-9.502c-0.397-4.753-3.578-8.307-7.936-8.702
	C122.771,256.303,119.194,255.898,115.232,255.898z M103.53,302.81h23.404c3.245,0,5.869,2.591,5.869,5.835v31.475h31.474
	c3.245,0,5.869,2.625,5.869,5.868v23.439c0,3.245-2.624,5.868-5.869,5.868h-31.474v31.475c0,3.242-2.624,5.835-5.869,5.835H103.53
	c-3.245,0-5.868-2.591-5.868-5.835v-31.475H66.187c-3.242,0-5.868-2.622-5.868-5.868v-23.439c0-3.242,2.625-5.868,5.868-5.868
	h31.475v-31.475C97.662,305.401,100.284,302.81,103.53,302.81z"/>
<linearGradient id="XMLID_10_" gradientUnits="userSpaceOnUse" x1="400.5849" y1="402.7251" x2="200.4055" y2="402.7251">
	<stop  offset="0" style="stop-color:#3ACEF8"/>
	<stop  offset="1" style="stop-color:#30357C"/>
</linearGradient>
<path id="XMLID_20_" style="fill:url(#XMLID_10_);" d="M206.661,385.798c5.275,0,10.549,0,15.824,0c2.575,0,4.446-1.463,5.151-4.047
	c1.503-5.512,3.725-10.646,6.255-15.454c1.15-2.186,0.902-4.93-0.737-6.622c-3.679-3.804-7.359-7.606-11.038-11.406
	c-1.809-1.869-2.197-5.143-0.369-7.359c5.161-6.247,10.725-12.074,16.928-16.926c2.263-1.771,5.294-1.631,7.359,0.369
	c3.804,3.68,7.606,7.359,11.408,11.038c1.869,1.809,4.326,2.066,6.624,0.735c4.701-2.722,9.962-4.686,15.455-6.255
	c2.236-0.641,4.047-2.945,4.047-5.151c0-5.275,0-10.549,0-15.824c0-2.944,2.197-5.232,4.784-5.52
	c4.039-0.449,8.095-0.735,12.142-0.735c4.049,0,8.101,0.31,12.143,0.735c2.95,0.31,4.783,2.576,4.783,5.52
	c0,5.275,0,10.549,0,15.824c0,2.575,1.465,4.446,4.047,5.151c5.512,1.503,10.647,3.726,15.455,6.255
	c2.186,1.15,4.931,0.903,6.624-0.735c3.804-3.679,7.606-7.358,11.406-11.038c1.871-1.81,5.145-2.198,7.361-0.369
	c6.249,5.161,12.074,10.725,16.928,16.926c1.771,2.263,1.631,5.295-0.368,7.359c-3.68,3.802-7.359,7.606-11.04,11.406
	c-1.809,1.869-2.064,4.326-0.735,6.622c2.722,4.702,4.686,9.962,6.257,15.454c0.637,2.238,2.943,4.047,5.151,4.047
	c5.273,0,10.548,0,15.822,0c2.943,0,5.232,2.198,5.52,4.784c0.448,4.04,0.735,8.097,0.735,12.144c0,4.049-0.31,8.101-0.735,12.142
	c-0.312,2.951-2.576,4.783-5.52,4.783c-5.275,0-10.549,0-15.822,0c-2.576,0-4.447,1.463-5.151,4.049
	c-1.504,5.512-3.726,10.645-6.257,15.453c-1.15,2.185-0.901,4.93,0.735,6.623c3.68,3.804,7.361,7.606,11.04,11.408
	c1.811,1.871,2.198,5.142,0.368,7.36c-5.162,6.247-10.725,12.074-16.928,16.928c-2.263,1.771-5.294,1.629-7.361-0.368
	c-3.801-3.68-7.603-7.361-11.406-11.041c-1.869-1.808-4.326-2.066-6.624-0.735c-4.702,2.724-9.961,4.686-15.455,6.255
	c-2.236,0.641-4.047,2.945-4.047,5.151c0,5.275,0,10.549,0,15.824c0,2.943-2.197,5.232-4.783,5.52
	c-4.041,0.451-8.095,0.735-12.143,0.735c-4.047,0-8.101-0.31-12.142-0.735c-2.95-0.31-4.784-2.576-4.784-5.52
	c0-5.275,0-10.549,0-15.824c0-2.575-1.463-4.446-4.047-5.151c-5.512-1.503-10.647-3.725-15.455-6.255
	c-2.184-1.148-4.93-0.902-6.624,0.735c-3.802,3.68-7.604,7.361-11.408,11.041c-1.869,1.808-5.143,2.198-7.359,0.368
	c-6.249-5.162-12.074-10.726-16.928-16.928c-1.77-2.263-1.631-5.295,0.369-7.36c3.68-3.802,7.361-7.604,11.038-11.408
	c1.811-1.869,2.066-4.327,0.737-6.623c-2.722-4.7-4.686-9.962-6.255-15.453c-0.639-2.238-2.943-4.049-5.151-4.049
	c-5.275,0-10.549,0-15.824,0c-2.943,0-5.232-2.197-5.518-4.783c-0.449-4.038-0.737-8.096-0.737-12.142
	c0-4.049,0.31-8.103,0.737-12.144C201.453,387.631,203.717,385.798,206.661,385.798z M250.082,402.726
	c0-27.597,22.446-50.045,50.043-50.045c27.597,0,50.045,22.446,50.045,50.045c0,27.596-22.448,50.043-50.045,50.043
	C272.528,452.769,250.082,430.323,250.082,402.726z"/>
</svg>
