<?xml version="1.0" encoding="iso-8859-1"?>
<!-- Generator: Adobe Illustrator 19.0.0, SVG Export Plug-In . SVG Version: 6.00 Build 0)  -->
<svg version="1.1" id="Capa_1" xmlns="http://www.w3.org/2000/svg" xmlns:xlink="http://www.w3.org/1999/xlink" x="0px" y="0px"
	 viewBox="-49 141 512 512" style="enable-background:new -49 141 512 512;" xml:space="preserve">
<linearGradient id="XMLID_2_" gradientUnits="userSpaceOnUse" x1="74.31" y1="273.678" x2="339.6647" y2="273.678">
	<stop  offset="0" style="stop-color:#7AD2F1"/>
	<stop  offset="1" style="stop-color:#B1E2F5"/>
</linearGradient>
<path id="XMLID_46_" style="fill:url(#XMLID_2_);" d="M206.987,141C133.823,141,74.31,200.513,74.31,273.677
	c0,73.165,59.513,132.679,132.677,132.679c73.164,0,132.678-59.515,132.678-132.679S280.152,141,206.987,141z M187.855,183.951
	h38.301c5.304,0,9.549,4.28,9.549,9.584v51.426h51.462c5.301,0,9.546,4.282,9.546,9.581v38.266c0,5.302-4.245,9.586-9.546,9.586
	h-51.462v51.426c0,5.301-4.247,9.586-9.549,9.586h-38.301c-5.304,0-9.584-4.282-9.584-9.586v-51.426h-51.426
	c-5.301,0-9.584-4.283-9.584-9.586v-38.266c0-5.299,4.283-9.581,9.584-9.581h51.426v-51.426
	C178.271,188.231,182.551,183.951,187.855,183.951z"/>
<path id="XMLID_38_" style="fill:#333333;" d="M-2.435,196.727c-9.875,0-17.825,7.95-17.825,17.825v438.816
	c151.49-0.91,303.017,0.059,454.52-0.385V214.55c0-9.875-7.951-17.827-17.825-17.827h-58.451h-24.23
	c5.462,8.912,9.981,18.398,13.369,28.338c2.991,8.041,5.162,16.331,6.543,24.718h41.603c4.937,0,8.912,3.975,8.912,8.912v62.385
	c0,4.938-3.975,8.912-8.912,8.912H346.25c-0.72,0-1.419-0.092-2.089-0.244c-6.551,16.01-15.795,30.903-27.433,43.657
	c-6.551,7.573-13.936,14.295-21.931,20.154c0.147,0.649,0.209,1.327,0.209,2.021v62.385c0,4.938-3.976,8.912-8.913,8.912h-49.016
	c-4.938,0-8.913-3.973-8.913-8.912v-37.596c-14.012,1.997-28.318,2.065-42.333,0.103v37.492c0,4.937-3.975,8.912-8.913,8.912
	h-49.016c-4.938,0-8.912-3.975-8.912-8.912v-62.385c0-0.698,0.092-1.37,0.244-2.021c-21.77-16.187-38.895-38.637-49.332-63.814
	c-0.688,0.171-1.413,0.244-2.157,0.244H18.729c-4.938,0-8.913-3.973-8.913-8.912v-62.385c0-4.937,3.975-8.91,8.913-8.91h41.53
	c2.893-18.929,9.877-36.927,19.948-53.056L-2.435,196.727z M18.732,386.667h49.016c4.938,0,8.912,3.973,8.912,8.912v62.385
	c0,4.937-3.974,8.912-8.912,8.912H18.732c-4.938,0-8.913-3.975-8.913-8.912v-62.385C9.819,390.64,13.794,386.667,18.732,386.667z
	 M346.254,386.667h49.016c4.938,0,8.912,3.973,8.912,8.912v62.385c0,4.937-3.973,8.912-8.912,8.912h-49.016
	c-4.938,0-8.913-3.975-8.913-8.912v-62.385C337.34,390.64,341.315,386.667,346.254,386.667z M18.732,520.105h49.016
	c4.938,0,8.912,3.973,8.912,8.912v62.385c0,4.937-3.974,8.91-8.912,8.91H18.732c-4.938,0-8.913-3.973-8.913-8.91v-62.385
	C9.819,524.078,13.794,520.105,18.732,520.105z M127.905,520.105h49.016c4.938,0,8.913,3.973,8.913,8.912v62.385
	c0,4.937-3.975,8.91-8.913,8.91h-49.016c-4.938,0-8.912-3.973-8.912-8.91v-62.385C118.994,524.078,122.967,520.105,127.905,520.105z
	 M237.08,520.105h49.016c4.937,0,8.913,3.973,8.913,8.912v62.385c0,4.937-3.976,8.91-8.913,8.91H237.08
	c-4.938,0-8.913-3.973-8.913-8.91v-62.385C228.167,524.078,232.142,520.105,237.08,520.105z M346.254,520.105h49.018
	c4.937,0,8.912,3.973,8.912,8.912v62.385c0,4.937-3.975,8.91-8.912,8.91h-49.018c-4.938,0-8.912-3.973-8.912-8.91v-62.385
	C337.342,524.078,341.315,520.105,346.254,520.105z"/>
<linearGradient id="XMLID_3_" gradientUnits="userSpaceOnUse" x1="-20.2598" y1="425.0441" x2="434.2599" y2="425.0441">
	<stop  offset="0" style="stop-color:#3ACEF8"/>
	<stop  offset="1" style="stop-color:#30357C"/>
</linearGradient>
<path id="XMLID_30_" style="fill:url(#XMLID_3_);" d="M-2.435,196.727c-9.875,0-17.825,7.95-17.825,17.825v438.816
	c151.49-0.91,303.017,0.059,454.52-0.385V214.55c0-9.875-7.951-17.827-17.825-17.827h-58.451h-24.23
	c5.462,8.912,9.981,18.398,13.369,28.338c2.991,8.041,5.162,16.331,6.543,24.718h41.603c4.937,0,8.912,3.975,8.912,8.912v62.385
	c0,4.938-3.975,8.912-8.912,8.912H346.25c-0.72,0-1.419-0.092-2.089-0.244c-6.551,16.01-15.795,30.903-27.433,43.657
	c-6.551,7.573-13.936,14.295-21.931,20.154c0.147,0.649,0.209,1.327,0.209,2.021v62.385c0,4.938-3.976,8.912-8.913,8.912h-49.016
	c-4.938,0-8.913-3.973-8.913-8.912v-37.596c-14.012,1.997-28.318,2.065-42.333,0.103v37.492c0,4.937-3.975,8.912-8.913,8.912
	h-49.016c-4.938,0-8.912-3.975-8.912-8.912v-62.385c0-0.698,0.092-1.37,0.244-2.021c-21.77-16.187-38.895-38.637-49.332-63.814
	c-0.688,0.171-1.413,0.244-2.157,0.244H18.729c-4.938,0-8.913-3.973-8.913-8.912v-62.385c0-4.937,3.975-8.91,8.913-8.91h41.53
	c2.893-18.929,9.877-36.927,19.948-53.056L-2.435,196.727z M18.732,386.667h49.016c4.938,0,8.912,3.973,8.912,8.912v62.385
	c0,4.937-3.974,8.912-8.912,8.912H18.732c-4.938,0-8.913-3.975-8.913-8.912v-62.385C9.819,390.64,13.794,386.667,18.732,386.667z
	 M346.254,386.667h49.016c4.938,0,8.912,3.973,8.912,8.912v62.385c0,4.937-3.973,8.912-8.912,8.912h-49.016
	c-4.938,0-8.913-3.975-8.913-8.912v-62.385C337.34,390.64,341.315,386.667,346.254,386.667z M18.732,520.105h49.016
	c4.938,0,8.912,3.973,8.912,8.912v62.385c0,4.937-3.974,8.91-8.912,8.91H18.732c-4.938,0-8.913-3.973-8.913-8.91v-62.385
	C9.819,524.078,13.794,520.105,18.732,520.105z M127.905,520.105h49.016c4.938,0,8.913,3.973,8.913,8.912v62.385
	c0,4.937-3.975,8.91-8.913,8.91h-49.016c-4.938,0-8.912-3.973-8.912-8.91v-62.385C118.994,524.078,122.967,520.105,127.905,520.105z
	 M237.08,520.105h49.016c4.937,0,8.913,3.973,8.913,8.912v62.385c0,4.937-3.976,8.91-8.913,8.91H237.08
	c-4.938,0-8.913-3.973-8.913-8.91v-62.385C228.167,524.078,232.142,520.105,237.08,520.105z M346.254,520.105h49.018
	c4.937,0,8.912,3.973,8.912,8.912v62.385c0,4.937-3.975,8.91-8.912,8.91h-49.018c-4.938,0-8.912-3.973-8.912-8.91v-62.385
	C337.342,524.078,341.315,520.105,346.254,520.105z"/>
</svg>
