<?xml version="1.0" encoding="iso-8859-1"?>
<!-- Generator: Adobe Illustrator 19.0.0, SVG Export Plug-In . SVG Version: 6.00 Build 0)  -->
<svg version="1.1" id="Capa_1" xmlns="http://www.w3.org/2000/svg" xmlns:xlink="http://www.w3.org/1999/xlink" x="0px" y="0px"
	 viewBox="-49 141 512 512" style="enable-background:new -49 141 512 512;" xml:space="preserve">
<linearGradient id="XMLID_3_" gradientUnits="userSpaceOnUse" x1="55.7457" y1="397" x2="358.2543" y2="397">
	<stop  offset="0" style="stop-color:#3ACEF8"/>
	<stop  offset="1" style="stop-color:#30357C"/>
</linearGradient>
<path id="XMLID_1228_" style="fill:url(#XMLID_3_);" d="M319.802,142.55H95.21c-21.479,0-39.465,17.175-39.465,38.663v431.579
	c0,21.476,17.986,38.659,39.465,38.659h224.592c21.484,0,38.452-17.182,38.452-38.659v-431.58
	C358.254,159.724,341.286,142.55,319.802,142.55z M175.807,162.432l64.035,0.02c4.199,0.211,7.575,3.696,7.575,7.94
	c0,4.267-3.484,7.748-7.531,7.96v0.082h-63.74v-0.082c-5.065,0-8.19-3.571-8.19-7.96c0-4.394,3.461-7.962,7.85-7.962V162.432z
	 M207.499,635.818c-13.189,0-23.885-10.696-23.885-23.878c0-13.187,10.696-23.884,23.885-23.884
	c13.197,0,23.889,10.696,23.889,23.884C231.387,625.121,220.696,635.818,207.499,635.818z M343.08,572.533H71.936V198.128H343.08
	V572.533z"/>
<linearGradient id="XMLID_4_" gradientUnits="userSpaceOnUse" x1="93.9437" y1="536.0091" x2="320.0579" y2="536.0091">
	<stop  offset="0" style="stop-color:#3ACEF8"/>
	<stop  offset="1" style="stop-color:#30357C"/>
</linearGradient>
<path id="XMLID_1213_" style="fill:url(#XMLID_4_);" d="M102.087,528.087h209.829c4.496,0,8.143,3.547,8.143,7.922v-0.002
	c0,4.375-3.646,7.924-8.143,7.924H102.087c-4.497,0-8.143-3.549-8.143-7.924v0.002C93.944,531.634,97.59,528.087,102.087,528.087z"
	/>
<linearGradient id="XMLID_5_" gradientUnits="userSpaceOnUse" x1="88.3629" y1="433.1306" x2="325.6387" y2="433.1306">
	<stop  offset="0" style="stop-color:#3ACEF8"/>
	<stop  offset="1" style="stop-color:#30357C"/>
</linearGradient>
<path id="XMLID_1212_" style="fill:url(#XMLID_5_);" d="M246.954,380.522c-0.033,0.05-0.069,0.101-0.102,0.145
	c-1.76,16.155-5.133,38.193-11.487,57.153c-3.594,10.733-8.194,20.451-13.565,27.348c-4.837,6.209-9.903,9.601-14.908,9.601
	c-5.007,0-10.043-3.392-14.882-9.601c-5.37-6.896-9.972-16.615-13.565-27.348c-6.368-19.005-9.744-41.104-11.499-57.268
	c-3.4,1.311-38.11,14.789-47.818,21.314c-10.206,6.86-16.492,14.592-21.926,26.373c-5.433,11.781-8.84,25.443-8.84,37.918
	c0,1.496,0.946,2.964,2.312,3.575c32.036,14.33,90.841,16.007,116.326,16.007c25.488,0,84.304-1.677,116.342-16.007
	c1.364-0.611,2.296-2.079,2.296-3.575c0-12.475-3.377-26.137-8.81-37.918c-5.434-11.781-11.72-19.513-21.924-26.373
	C285.165,395.318,250.16,381.759,246.954,380.522L246.954,380.522z"/>
<linearGradient id="XMLID_6_" gradientUnits="userSpaceOnUse" x1="149.9497" y1="341.9024" x2="266.6105" y2="341.9024">
	<stop  offset="0" style="stop-color:#7AD2F1"/>
	<stop  offset="1" style="stop-color:#B1E2F5"/>
</linearGradient>
<path id="XMLID_1211_" style="fill:url(#XMLID_6_);" d="M159.706,302.955l-4.537,4.842c-0.033,2.269-0.074,5.582-0.074,5.582
	c-0.33,0.162-0.684,0.264-0.988,0.479c-1.399,0.989-2.31,2.405-2.878,3.838c-1.138,2.868-1.279,6.035-1.279,10.061
	c0,12.736,7.332,24.844,14.611,31.941c5.702,21.06,22.205,36.865,43.719,36.865c21.513,0,38.017-15.807,43.717-36.865
	c7.28-7.097,14.613-19.205,14.613-31.941c0-4.026-0.143-7.195-1.279-10.061c-0.567-1.433-1.48-2.848-2.879-3.838
	c-0.303-0.215-0.657-0.317-0.988-0.479c0,0-0.043-3.313-0.073-5.582l-4.537-4.842c-11.325-11.305-28.572-15.715-48.573-15.715
	C188.278,287.24,171.03,291.65,159.706,302.955z"/>
<linearGradient id="XMLID_7_" gradientUnits="userSpaceOnUse" x1="150.1257" y1="266.4946" x2="266.4376" y2="266.4946">
	<stop  offset="0" style="stop-color:#3ACEF8"/>
	<stop  offset="1" style="stop-color:#30357C"/>
</linearGradient>
<path id="XMLID_1222_" style="fill:url(#XMLID_7_);" d="M208.076,231.148c-0.088,0-0.175,0-0.261,0.011
	c-10.173-0.02-20.447,1.22-30.096,3.852h-0.014c-0.116,0.021-0.234,0.031-0.349,0.061c-9.53,2.634-18.466,6.659-24.962,14
	l-0.015,0.009c-1.458,1.642-2.254,3.714-2.254,5.919v0.009l0.176,43.312c0.018,1.701,1.436,3.285,3.126,3.489
	c1.688,0.204,1.717-0.599,3.852-2.645c9.747-9.334,15.595-10.182,21.735-12.562c0.074-0.011,0.159-0.02,0.233-0.041
	c9.196-2.546,19.182-3.755,29.034-3.693c9.853-0.06,19.853,1.147,29.05,3.693c0.074,0.02,0.143,0.03,0.218,0.041
	c6.139,2.379,11.99,3.228,21.735,12.562c2.136,2.046,2.164,2.849,3.852,2.645c1.69-0.204,3.109-1.788,3.126-3.489l0.174-43.312V255
	c0-2.205-0.795-4.276-2.252-5.919l-0.014-0.009c-6.495-7.341-15.433-11.366-24.963-14c-0.115-0.031-0.218-0.041-0.335-0.061h-0.028
	c-9.648-2.632-19.922-3.876-30.095-3.852c-0.088,0-0.174-0.011-0.261-0.011h-0.19h-0.013h-0.204H208.076z M208.28,236.397
	c11.166,0,20.223,9.043,20.223,20.211c0,11.166-9.057,20.223-20.223,20.223c-11.168,0-20.224-9.057-20.224-20.223
	C188.057,245.44,197.112,236.397,208.28,236.397z"/>
<linearGradient id="XMLID_8_" gradientUnits="userSpaceOnUse" x1="192.091" y1="256.612" x2="224.4698" y2="256.612">
	<stop  offset="0" style="stop-color:#3ACEF8"/>
	<stop  offset="1" style="stop-color:#30357C"/>
</linearGradient>
<path id="XMLID_1_" style="fill:url(#XMLID_8_);" d="M208.227,240.515c-1.922,0.028-3.456,1.608-3.431,3.53v9.112h-9.107
	c-1.922-0.063-3.533,1.444-3.595,3.366c-0.063,1.924,1.444,3.533,3.366,3.597c0.077,0.002,0.152,0.002,0.229,0h9.107v9.106
	c0,1.924,1.559,3.484,3.485,3.484c1.923,0,3.482-1.561,3.482-3.484l0,0v-9.106h9.107c1.924,0.063,3.533-1.444,3.598-3.366
	c0.061-1.924-1.445-3.533-3.368-3.597c-0.075-0.003-0.152-0.003-0.229,0h-9.107v-9.112c0.027-1.924-1.512-3.505-3.434-3.53
	C208.294,240.513,208.261,240.513,208.227,240.515z"/>
</svg>
