<?xml version="1.0" encoding="iso-8859-1"?>
<!-- Generator: Adobe Illustrator 19.0.0, SVG Export Plug-In . SVG Version: 6.00 Build 0)  -->
<svg version="1.1" id="Capa_1" xmlns="http://www.w3.org/2000/svg" xmlns:xlink="http://www.w3.org/1999/xlink" x="0px" y="0px"
	 viewBox="-49 141 512 512" style="enable-background:new -49 141 512 512;" xml:space="preserve">
<linearGradient id="XMLID_2_" gradientUnits="userSpaceOnUse" x1="-29.8061" y1="418.1732" x2="443.8061" y2="418.1732">
	<stop  offset="0" style="stop-color:#3ACEF8"/>
	<stop  offset="1" style="stop-color:#30357C"/>
</linearGradient>
<path id="XMLID_54_" style="fill:url(#XMLID_2_);" d="M-14.02,197.155c-8.748,0-15.786,7.043-15.786,15.789v410.462
	c0,8.745,7.038,15.786,15.786,15.786h442.038c8.746,0,15.789-7.041,15.789-15.786V212.944c0-8.746-7.043-15.789-15.789-15.789
	H388.27c0.149,14.322,2.046,28.903-3.637,42.305c-9.347,23.964-45.459,28.191-61.731,9.127c-12.354-13.97-9.758-33.963-9.343-51.432
	H100.588c0.066,14.657,2.197,29.667-4.041,43.262c-9.928,23.124-45.107,26.904-61.175,8.324
	c-12.512-13.929-9.971-34.033-9.526-51.585h-39.868H-14.02z M17.556,276.06h378.889c8.744,0,15.788,7.041,15.788,15.787V591.8
	c0,8.746-7.041,15.787-15.788,15.787H17.556c-8.748,0-15.787-7.041-15.787-15.787V291.847C1.768,283.101,8.808,276.06,17.556,276.06
	z"/>
<linearGradient id="XMLID_6_" gradientUnits="userSpaceOnUse" x1="17.5277" y1="323.4328" x2="80.6764" y2="323.4328">
	<stop  offset="0" style="stop-color:#7AD2F1"/>
	<stop  offset="1" style="stop-color:#B1E2F5"/>
</linearGradient>
<path id="XMLID_27_" style="fill:url(#XMLID_6_);" d="M25.421,291.859h47.362c4.36,0,7.894,3.534,7.894,7.892v47.363
	c0,4.36-3.534,7.892-7.894,7.892H25.421c-4.36,0-7.893-3.532-7.893-7.892v-47.363C17.528,295.393,21.061,291.859,25.421,291.859z"/>
<linearGradient id="XMLID_7_" gradientUnits="userSpaceOnUse" x1="96.4666" y1="323.4328" x2="159.614" y2="323.4328">
	<stop  offset="0" style="stop-color:#7AD2F1"/>
	<stop  offset="1" style="stop-color:#B1E2F5"/>
</linearGradient>
<path id="XMLID_26_" style="fill:url(#XMLID_7_);" d="M104.359,291.859h47.363c4.36,0,7.892,3.534,7.892,7.892v47.363
	c0,4.36-3.532,7.892-7.892,7.892h-47.363c-4.358,0-7.892-3.532-7.892-7.892v-47.363C96.467,295.393,100,291.859,104.359,291.859z"/>
<linearGradient id="XMLID_8_" gradientUnits="userSpaceOnUse" x1="175.4071" y1="323.4328" x2="238.5545" y2="323.4328">
	<stop  offset="0" style="stop-color:#7AD2F1"/>
	<stop  offset="1" style="stop-color:#B1E2F5"/>
</linearGradient>
<path id="XMLID_25_" style="fill:url(#XMLID_8_);" d="M183.301,291.859h47.362c4.36,0,7.892,3.534,7.892,7.892v47.363
	c0,4.36-3.532,7.892-7.892,7.892h-47.362c-4.36,0-7.894-3.532-7.894-7.892v-47.363C175.407,295.393,178.941,291.859,183.301,291.859
	z"/>
<linearGradient id="XMLID_9_" gradientUnits="userSpaceOnUse" x1="254.3491" y1="323.4328" x2="317.498" y2="323.4328">
	<stop  offset="0" style="stop-color:#7AD2F1"/>
	<stop  offset="1" style="stop-color:#B1E2F5"/>
</linearGradient>
<path id="XMLID_24_" style="fill:url(#XMLID_9_);" d="M262.243,291.859h47.362c4.36,0,7.893,3.534,7.893,7.892v47.363
	c0,4.36-3.534,7.892-7.893,7.892h-47.362c-4.36,0-7.894-3.532-7.894-7.892v-47.363C254.349,295.393,257.883,291.859,262.243,291.859
	z"/>
<linearGradient id="XMLID_16_" gradientUnits="userSpaceOnUse" x1="333.2896" y1="323.4328" x2="396.4385" y2="323.4328">
	<stop  offset="0" style="stop-color:#3ACEF8"/>
	<stop  offset="1" style="stop-color:#30357C"/>
</linearGradient>
<path id="XMLID_23_" style="fill:url(#XMLID_16_);" d="M341.183,291.859h47.362c4.36,0,7.894,3.534,7.894,7.892v47.363
	c0,4.36-3.534,7.892-7.894,7.892h-47.362c-4.36,0-7.894-3.532-7.894-7.892v-47.363C333.29,295.393,336.823,291.859,341.183,291.859z
	"/>
<linearGradient id="XMLID_30_" gradientUnits="userSpaceOnUse" x1="17.5261" y1="402.3733" x2="80.6734" y2="402.3733">
	<stop  offset="0" style="stop-color:#7AD2F1"/>
	<stop  offset="1" style="stop-color:#B1E2F5"/>
</linearGradient>
<path id="XMLID_22_" style="fill:url(#XMLID_30_);" d="M80.673,378.693v47.362c0,4.36-3.534,7.892-7.894,7.892H25.418
	c-4.36,0-7.892-3.532-7.892-7.892v-47.362c0-4.36,3.533-7.894,7.892-7.894H72.78C77.14,370.799,80.673,374.334,80.673,378.693z"/>
<linearGradient id="XMLID_31_" gradientUnits="userSpaceOnUse" x1="17.5261" y1="481.3147" x2="80.6734" y2="481.3147">
	<stop  offset="0" style="stop-color:#3ACEF8"/>
	<stop  offset="1" style="stop-color:#30357C"/>
</linearGradient>
<path id="XMLID_21_" style="fill:url(#XMLID_31_);" d="M80.673,457.634v47.362c0,4.36-3.534,7.894-7.894,7.894H25.418
	c-4.36,0-7.892-3.534-7.892-7.894v-47.362c0-4.36,3.533-7.894,7.892-7.894H72.78C77.14,449.74,80.673,453.274,80.673,457.634z"/>
<linearGradient id="XMLID_32_" gradientUnits="userSpaceOnUse" x1="17.5261" y1="560.2551" x2="80.6734" y2="560.2551">
	<stop  offset="0" style="stop-color:#7AD2F1"/>
	<stop  offset="1" style="stop-color:#B1E2F5"/>
</linearGradient>
<path id="XMLID_20_" style="fill:url(#XMLID_32_);" d="M80.673,536.574v47.362c0,4.36-3.534,7.893-7.894,7.893H25.418
	c-4.36,0-7.892-3.534-7.892-7.893v-47.362c0-4.36,3.533-7.894,7.892-7.894H72.78C77.14,528.681,80.673,532.215,80.673,536.574z"/>
<linearGradient id="XMLID_34_" gradientUnits="userSpaceOnUse" x1="96.4666" y1="402.3733" x2="159.614" y2="402.3733">
	<stop  offset="0" style="stop-color:#3ACEF8"/>
	<stop  offset="1" style="stop-color:#30357C"/>
</linearGradient>
<path id="XMLID_19_" style="fill:url(#XMLID_34_);" d="M104.359,370.799h47.363c4.36,0,7.892,3.534,7.892,7.894v47.362
	c0,4.36-3.532,7.892-7.892,7.892h-47.363c-4.358,0-7.892-3.532-7.892-7.892v-47.362C96.467,374.334,100,370.799,104.359,370.799z"/>
<linearGradient id="XMLID_35_" gradientUnits="userSpaceOnUse" x1="175.4071" y1="402.3733" x2="238.5545" y2="402.3733">
	<stop  offset="0" style="stop-color:#3ACEF8"/>
	<stop  offset="1" style="stop-color:#30357C"/>
</linearGradient>
<path id="XMLID_18_" style="fill:url(#XMLID_35_);" d="M183.301,370.799h47.362c4.36,0,7.892,3.534,7.892,7.894v47.362
	c0,4.36-3.532,7.892-7.892,7.892h-47.362c-4.36,0-7.894-3.532-7.894-7.892v-47.362C175.407,374.334,178.941,370.799,183.301,370.799
	z"/>
<linearGradient id="XMLID_36_" gradientUnits="userSpaceOnUse" x1="254.3491" y1="402.3733" x2="317.498" y2="402.3733">
	<stop  offset="0" style="stop-color:#7AD2F1"/>
	<stop  offset="1" style="stop-color:#B1E2F5"/>
</linearGradient>
<path id="XMLID_17_" style="fill:url(#XMLID_36_);" d="M262.243,370.799h47.362c4.36,0,7.893,3.534,7.893,7.894v47.362
	c0,4.36-3.534,7.892-7.893,7.892h-47.362c-4.36,0-7.894-3.532-7.894-7.892v-47.362C254.349,374.334,257.883,370.799,262.243,370.799
	z"/>
<linearGradient id="XMLID_37_" gradientUnits="userSpaceOnUse" x1="333.2896" y1="402.3733" x2="396.4385" y2="402.3733">
	<stop  offset="0" style="stop-color:#7AD2F1"/>
	<stop  offset="1" style="stop-color:#B1E2F5"/>
</linearGradient>
<path id="XMLID_15_" style="fill:url(#XMLID_37_);" d="M341.183,370.799h47.362c4.36,0,7.894,3.534,7.894,7.894v47.362
	c0,4.36-3.534,7.892-7.894,7.892h-47.362c-4.36,0-7.894-3.532-7.894-7.892v-47.362C333.29,374.334,336.823,370.799,341.183,370.799z
	"/>
<linearGradient id="XMLID_38_" gradientUnits="userSpaceOnUse" x1="96.4666" y1="481.3147" x2="159.614" y2="481.3147">
	<stop  offset="0" style="stop-color:#7AD2F1"/>
	<stop  offset="1" style="stop-color:#B1E2F5"/>
</linearGradient>
<path id="XMLID_14_" style="fill:url(#XMLID_38_);" d="M104.359,449.74h47.363c4.36,0,7.892,3.534,7.892,7.894v47.362
	c0,4.36-3.532,7.894-7.892,7.894h-47.363c-4.358,0-7.892-3.534-7.892-7.894v-47.362C96.467,453.274,100,449.74,104.359,449.74z"/>
<linearGradient id="XMLID_39_" gradientUnits="userSpaceOnUse" x1="175.4071" y1="481.3147" x2="238.5545" y2="481.3147">
	<stop  offset="0" style="stop-color:#7AD2F1"/>
	<stop  offset="1" style="stop-color:#B1E2F5"/>
</linearGradient>
<path id="XMLID_13_" style="fill:url(#XMLID_39_);" d="M183.301,449.74h47.362c4.36,0,7.892,3.534,7.892,7.894v47.362
	c0,4.36-3.532,7.894-7.892,7.894h-47.362c-4.36,0-7.894-3.534-7.894-7.894v-47.362C175.407,453.274,178.941,449.74,183.301,449.74z"
	/>
<linearGradient id="XMLID_40_" gradientUnits="userSpaceOnUse" x1="254.3491" y1="481.3147" x2="317.498" y2="481.3147">
	<stop  offset="0" style="stop-color:#7AD2F1"/>
	<stop  offset="1" style="stop-color:#B1E2F5"/>
</linearGradient>
<path id="XMLID_12_" style="fill:url(#XMLID_40_);" d="M262.243,449.74h47.362c4.36,0,7.893,3.534,7.893,7.894v47.362
	c0,4.36-3.534,7.894-7.893,7.894h-47.362c-4.36,0-7.894-3.534-7.894-7.894v-47.362C254.349,453.274,257.883,449.74,262.243,449.74z"
	/>
<linearGradient id="XMLID_41_" gradientUnits="userSpaceOnUse" x1="333.2896" y1="481.3147" x2="396.4385" y2="481.3147">
	<stop  offset="0" style="stop-color:#7AD2F1"/>
	<stop  offset="1" style="stop-color:#B1E2F5"/>
</linearGradient>
<path id="XMLID_11_" style="fill:url(#XMLID_41_);" d="M341.183,449.74h47.362c4.36,0,7.894,3.534,7.894,7.894v47.362
	c0,4.36-3.534,7.894-7.894,7.894h-47.362c-4.36,0-7.894-3.534-7.894-7.894v-47.362C333.29,453.274,336.823,449.74,341.183,449.74z"
	/>
<linearGradient id="XMLID_42_" gradientUnits="userSpaceOnUse" x1="96.4666" y1="560.2551" x2="159.614" y2="560.2551">
	<stop  offset="0" style="stop-color:#7AD2F1"/>
	<stop  offset="1" style="stop-color:#B1E2F5"/>
</linearGradient>
<path id="XMLID_10_" style="fill:url(#XMLID_42_);" d="M104.359,528.681h47.363c4.36,0,7.892,3.534,7.892,7.894v47.362
	c0,4.36-3.532,7.893-7.892,7.893h-47.363c-4.358,0-7.892-3.534-7.892-7.893v-47.362C96.467,532.215,100,528.681,104.359,528.681z"/>
<linearGradient id="XMLID_43_" gradientUnits="userSpaceOnUse" x1="175.4071" y1="560.2551" x2="238.5545" y2="560.2551">
	<stop  offset="0" style="stop-color:#3ACEF8"/>
	<stop  offset="1" style="stop-color:#30357C"/>
</linearGradient>
<path id="XMLID_5_" style="fill:url(#XMLID_43_);" d="M183.301,528.681h47.362c4.36,0,7.892,3.534,7.892,7.894v47.362
	c0,4.36-3.532,7.893-7.892,7.893h-47.362c-4.36,0-7.894-3.534-7.894-7.893v-47.362C175.407,532.215,178.941,528.681,183.301,528.681
	z"/>
<linearGradient id="XMLID_44_" gradientUnits="userSpaceOnUse" x1="39.468" y1="203.8845" x2="374.5098" y2="203.8845">
	<stop  offset="0" style="stop-color:#3ACEF8"/>
	<stop  offset="1" style="stop-color:#30357C"/>
</linearGradient>
<path id="XMLID_33_" style="fill:url(#XMLID_44_);" d="M63.147,160.809c-13.121,0-23.679,10.562-23.679,23.681v38.79
	c0,13.119,10.559,23.681,23.679,23.681c13.121,0,23.682-10.562,23.682-23.681v-38.79C86.83,171.37,76.268,160.809,63.147,160.809z
	 M350.829,160.809c-13.119,0-23.681,10.562-23.681,23.681v38.79c0,13.119,10.562,23.681,23.681,23.681
	c13.121,0,23.681-10.562,23.681-23.681v-38.79C374.51,171.37,363.95,160.809,350.829,160.809z"/>
</svg>
