<?xml version="1.0" encoding="iso-8859-1"?>
<!-- Generator: Adobe Illustrator 19.0.0, SVG Export Plug-In . SVG Version: 6.00 Build 0)  -->
<svg version="1.1" id="Capa_1" xmlns="http://www.w3.org/2000/svg" xmlns:xlink="http://www.w3.org/1999/xlink" x="0px" y="0px"
	 viewBox="-49 141 512 512" style="enable-background:new -49 141 512 512;" xml:space="preserve">
<linearGradient id="XMLID_2_" gradientUnits="userSpaceOnUse" x1="-38.5617" y1="352.111" x2="310.8793" y2="352.111">
	<stop  offset="0" style="stop-color:#7AD2F1"/>
	<stop  offset="1" style="stop-color:#B1E2F5"/>
</linearGradient>
<path id="XMLID_26_" style="fill:url(#XMLID_2_);" d="M3.892,359.862h263.186c4.415,0,7.951-3.442,7.951-7.735
	c0-4.294-3.536-7.767-7.951-7.767H3.892c-4.413,0-7.95,3.472-7.95,7.767C-4.059,356.421-0.521,359.862,3.892,359.862z"/>
<linearGradient id="XMLID_4_" gradientUnits="userSpaceOnUse" x1="-38.5617" y1="255.3446" x2="310.8793" y2="255.3446">
	<stop  offset="0" style="stop-color:#7AD2F1"/>
	<stop  offset="1" style="stop-color:#B1E2F5"/>
</linearGradient>
<path id="XMLID_27_" style="fill:url(#XMLID_4_);" d="M3.892,263.081h263.186c4.415,0,7.951-3.442,7.951-7.737
	c0-4.294-3.536-7.735-7.951-7.735H3.892c-4.413,0-7.95,3.441-7.95,7.735C-4.059,259.638-0.521,263.081,3.892,263.081z"/>
<linearGradient id="XMLID_6_" gradientUnits="userSpaceOnUse" x1="310.8793" y1="400.5032" x2="-38.5617" y2="400.5032">
	<stop  offset="0" style="stop-color:#3ACEF8"/>
	<stop  offset="1" style="stop-color:#30357C"/>
</linearGradient>
<path id="XMLID_30_" style="fill:url(#XMLID_6_);" d="M3.892,553.428c-4.413,0-7.95-3.472-7.95-7.768
	c0-4.291,3.537-7.734,7.95-7.734h208.885c0.039-2.106,0.118-4.217,0.275-6.323c1.145-28.005,13.031-54.301,31.372-74.959H3.892
	c-4.413,0-7.95-3.441-7.95-7.735c0-4.291,3.537-7.767,7.95-7.767h256.771c14.708-11.813,31.904-20.486,50.217-24.769v-205.6
	c0-21.898-17.861-39.75-39.75-39.75h-47.518v35.453c0,7.256-4.502,13.108-10.097,13.108H56.904c-5.599,0-10.097-5.852-10.097-13.108
	v-35.453H1.189c-21.89,0-39.751,17.852-39.751,39.75v379.43c0,21.901,17.861,39.783,39.751,39.783h248.974
	c-20.162-20.486-33.504-47.888-36.682-76.556H3.892z M3.892,247.609h263.186c4.415,0,7.951,3.441,7.951,7.735
	c0,4.295-3.536,7.737-7.951,7.737H3.892c-4.413,0-7.95-3.442-7.95-7.737C-4.059,251.049-0.521,247.609,3.892,247.609z M3.892,344.36
	h263.186c4.415,0,7.951,3.472,7.951,7.767c0,4.293-3.536,7.735-7.951,7.735H3.892c-4.413,0-7.95-3.441-7.95-7.735
	C-4.059,347.832-0.521,344.36,3.892,344.36z"/>
<linearGradient id="XMLID_8_" gradientUnits="userSpaceOnUse" x1="237.6789" y1="540.0413" x2="449.7587" y2="540.0413">
	<stop  offset="0" style="stop-color:#7AD2F1"/>
	<stop  offset="1" style="stop-color:#B1E2F5"/>
</linearGradient>
<path id="XMLID_5_" style="fill:url(#XMLID_8_);" d="M419.975,487.578c-0.051-0.065-0.092-0.133-0.152-0.195
	c-0.059-0.062-0.133-0.104-0.195-0.166l-25.471-20.971c-0.462-0.381-1.026-0.544-1.606-0.514l0.001,0.002
	c-0.746,0.04-1.503,0.403-2.049,1.066l-73.162,88.833l-5.963-7.402l-21.847-27.123c-0.552-0.683-1.844-0.539-2.908,0.318
	l-25.707,20.696c-1.063,0.857-1.491,2.098-0.941,2.783c18.434,22.88,35.109,43.602,51.403,63.828
	c1.214,1.507,2.426,3.012,3.637,4.514c0.923,1.148,2.794,1.581,3.71,0.43c35.352-43.065,68.062-82.671,101.057-122.762
	C420.628,489.885,420.684,488.492,419.975,487.578z"/>
<linearGradient id="XMLID_10_" gradientUnits="userSpaceOnUse" x1="237.6789" y1="537.2704" x2="449.7587" y2="537.2704">
	<stop  offset="0" style="stop-color:#7AD2F1"/>
	<stop  offset="1" style="stop-color:#B1E2F5"/>
</linearGradient>
<path id="XMLID_23_" style="fill:url(#XMLID_10_);" d="M424.889,614.674c1.824-11.776,3.111-41.854,3.111-77.412
	c0-30.259-0.932-56.548-2.334-70.967c-1.809-2.094-3.703-4.139-5.691-6.127l-0.484-0.484c-1.813-1.791-3.675-3.501-5.574-5.144
	H266.286c-1.469,1.271-2.908,2.592-4.325,3.951c-1.945,10.652-3.341,41.735-3.341,78.77c0,45.927,2.147,82.738,4.825,82.738h156.445
	c0.028-0.028,0.058-0.054,0.086-0.082C421.682,618.211,423.314,616.459,424.889,614.674z M318.726,613.677
	c-0.916,1.151-2.786,0.718-3.71-0.43c-1.21-1.502-2.423-3.007-3.637-4.514c-16.294-20.226-32.969-40.948-51.403-63.828
	c-0.55-0.685-0.122-1.926,0.941-2.783l25.707-20.696c1.064-0.857,2.356-1.001,2.908-0.318l21.847,27.123l5.963,7.402l73.162-88.833
	c0.546-0.663,1.303-1.026,2.049-1.066l-0.001-0.002c0.58-0.03,1.144,0.133,1.606,0.514l25.471,20.971
	c0.062,0.062,0.136,0.104,0.195,0.166c0.06,0.062,0.101,0.13,0.152,0.195c0.708,0.914,0.653,2.307-0.193,3.336
	C386.788,531.006,354.078,570.611,318.726,613.677z"/>
<linearGradient id="XMLID_12_" gradientUnits="userSpaceOnUse" x1="185.1596" y1="540.0403" x2="486.4824" y2="540.0403">
	<stop  offset="0" style="stop-color:#3ACEF8"/>
	<stop  offset="1" style="stop-color:#30357C"/>
</linearGradient>
<path id="XMLID_15_" style="fill:url(#XMLID_12_);" d="M425.666,466.295c-1.809-2.094-3.703-4.139-5.691-6.127l-0.484-0.484
	c-1.813-1.791-3.675-3.501-5.574-5.144c-21.255-18.388-47.722-27.539-74.162-27.459h-0.002c-9.545,0.03-19.084,1.27-28.374,3.703
	c-16.234,4.251-31.702,12.172-45.093,23.756c-1.469,1.271-2.908,2.592-4.325,3.951c-0.58,0.556-1.164,1.106-1.734,1.677
	c-44.112,44.113-44.112,115.635,0,159.749c3.663,3.663,7.519,7.016,11.529,10.071c44.247,33.71,107.679,30.383,148.134-9.988
	c0.028-0.028,0.058-0.054,0.086-0.082c1.707-1.706,3.339-3.458,4.914-5.244C462.182,572.388,462.445,508.876,425.666,466.295z
	 M419.782,490.915c-32.995,40.091-65.705,79.697-101.057,122.762c-0.916,1.151-2.786,0.718-3.71-0.43
	c-1.21-1.502-2.423-3.007-3.637-4.514c-16.294-20.226-32.969-40.948-51.403-63.828c-0.55-0.685-0.122-1.926,0.941-2.783
	l25.707-20.696c1.064-0.857,2.356-1.001,2.908-0.318l21.847,27.123l5.963,7.402l73.162-88.833c0.546-0.663,1.303-1.026,2.049-1.066
	l-0.001-0.002c0.58-0.03,1.144,0.133,1.606,0.514l25.471,20.971c0.062,0.062,0.136,0.104,0.195,0.166
	c0.06,0.062,0.101,0.13,0.152,0.195C420.684,488.492,420.628,489.885,419.782,490.915z"/>
<linearGradient id="XMLID_13_" gradientUnits="userSpaceOnUse" x1="206.8814" y1="178.4318" x2="65.4362" y2="178.4318">
	<stop  offset="0" style="stop-color:#3ACEF8"/>
	<stop  offset="1" style="stop-color:#30357C"/>
</linearGradient>
<path id="XMLID_7_" style="fill:url(#XMLID_13_);" d="M198.8,153H73.518c-4.464,0-8.081,3.036-8.081,6.782v17.509v19.79
	c0,3.746,3.618,6.782,8.081,6.782H198.8c4.464,0,8.081-3.036,8.081-6.782v-19.79v-17.509C206.881,156.036,203.264,153,198.8,153z"/>
<g id="XMLID_9_">
	<linearGradient id="XMLID_16_" gradientUnits="userSpaceOnUse" x1="-38.5617" y1="448.8922" x2="310.8793" y2="448.8922">
		<stop  offset="0" style="stop-color:#7AD2F1"/>
		<stop  offset="1" style="stop-color:#B1E2F5"/>
	</linearGradient>
	<path id="XMLID_11_" style="fill:url(#XMLID_16_);" d="M259.872,441.141H3.892c-4.413,0-7.95,3.476-7.95,7.767
		c0,4.294,3.537,7.735,7.95,7.735h239.88C248.672,451.017,254.063,445.831,259.872,441.141z"/>
	<linearGradient id="XMLID_20_" gradientUnits="userSpaceOnUse" x1="-38.5617" y1="545.6768" x2="310.8793" y2="545.6768">
		<stop  offset="0" style="stop-color:#7AD2F1"/>
		<stop  offset="1" style="stop-color:#B1E2F5"/>
	</linearGradient>
	<path id="XMLID_17_" style="fill:url(#XMLID_20_);" d="M212.591,537.926H3.892c-4.413,0-7.95,3.442-7.95,7.734
		c0,4.296,3.537,7.768,7.95,7.768h209.375c-0.461-4.401-0.702-8.867-0.702-13.391C212.565,539.331,212.58,538.629,212.591,537.926z"
		/>
	<linearGradient id="XMLID_22_" gradientUnits="userSpaceOnUse" x1="-38.5617" y1="508.5145" x2="310.8793" y2="508.5145">
		<stop  offset="0" style="stop-color:#7AD2F1"/>
		<stop  offset="1" style="stop-color:#B1E2F5"/>
	</linearGradient>
	<path id="XMLID_18_" style="fill:url(#XMLID_22_);" d="M214.235,519.442c1.227-7.528,3.116-14.833,5.605-21.855
		C217.277,504.649,215.38,511.96,214.235,519.442z"/>
	<linearGradient id="XMLID_32_" gradientUnits="userSpaceOnUse" x1="212.5647" y1="528.6837" x2="466.6393" y2="528.6837">
		<stop  offset="0" style="stop-color:#3ACEF8"/>
		<stop  offset="1" style="stop-color:#30357C"/>
	</linearGradient>
	<path id="XMLID_19_" style="fill:url(#XMLID_32_);" d="M213.051,531.603c0.167-4.095,0.571-8.151,1.184-12.161
		c-0.983,6.03-1.541,12.201-1.644,18.484h0.185C212.816,535.82,212.895,533.709,213.051,531.603z"/>
	<linearGradient id="XMLID_33_" gradientUnits="userSpaceOnUse" x1="212.5647" y1="477.1152" x2="466.6393" y2="477.1152">
		<stop  offset="0" style="stop-color:#3ACEF8"/>
		<stop  offset="1" style="stop-color:#30357C"/>
	</linearGradient>
	<path id="XMLID_21_" style="fill:url(#XMLID_33_);" d="M243.772,456.643c-10.369,11.905-18.55,25.762-23.931,40.944
		c5.458-15.036,13.928-28.943,24.583-40.944H243.772z"/>
</g>
</svg>
